{
  "accessors": [
    {
      "bufferView": 2,
      "componentType": 5126,
      "count": 26682,
      "max": [
        0.9971734285354614,
        7.802422523498535,
        1.9906601905822754
      ],
      "min": [
        -0.6373330354690552,
        -4.404147148132324,
        -1.9659980535507202
      ],
      "type": "VEC3"
    },
    {
      "bufferView": 2,
      "byteOffset": 320184,
      "componentType": 5126,
      "count": 26682,
      "max": [
        1.0,
        0.9999994039535522,
        0.9999997615814209
      ],
      "min": [
        -1.0,
        -0.9999973773956299,
        -0.9999992847442627
      ],
      "type": "VEC3"
    },
    {
      "bufferView": 1,
      "componentType": 5126,
      "count": 26682,
      "max": [
        1.1463749408721924,
        1.148162603378296
      ],
      "min": [
        0.1486169993877411,
        0.14816266298294067
      ],
      "type": "VEC2"
    },
    {
      "bufferView": 0,
      "componentType": 5125,
      "count": 137280,
      "type": "SCALAR"
    },
    {
      "bufferView": 2,
      "byteOffset": 640368,
      "componentType": 5126,
      "count": 306,
      "max": [
        0.13844001293182373,
        -2.0515317916870117,
        1.221014380455017
      ],
      "min": [
        -0.1977176070213318,
        -3.080352783203125,
        -1.1963518857955933
      ],
      "type": "VEC3"
    },
    {
      "bufferView": 2,
      "byteOffset": 644040,
      "componentType": 5126,
      "count": 306,
      "max": [
        0.9397304654121399,
        0.9998316764831543,
        0.9781191945075989
      ],
      "min": [
        -0.9618576765060425,
        -0.3244180977344513,
        -0.9781185984611511
      ],
      "type": "VEC3"
    },
    {
      "bufferView": 1,
      "byteOffset": 213456,
      "componentType": 5126,
      "count": 306,
      "max": [
        0.0,
        0.0
      ],
      "min": [
        0.0,
        0.0
      ],
      "type": "VEC2"
    },
    {
      "bufferView": 0,
      "byteOffset": 549120,
      "componentType": 5125,
      "count": 1536,
      "type": "SCALAR"
    },
    {
      "bufferView": 2,
      "byteOffset": 647712,
      "componentType": 5126,
      "count": 225,
      "max": [
        0.10146986693143845,
        6.364297866821289,
        1.553856611251831
      ],
      "min": [
        -0.25030529499053955,
        5.340529441833496,
        -1.5291943550109863
      ],
      "type": "VEC3"
    },
    {
      "bufferView": 2,
      "byteOffset": 650412,
      "componentType": 5126,
      "count": 225,
      "max": [
        0.7515018582344055,
        -0.16818952560424805,
        0.9444387555122375
      ],
      "min": [
        0.17908748984336853,
        -0.6597633957862854,
        -0.9444379806518555
      ],
      "type": "VEC3"
    },
    {
      "bufferView": 1,
      "byteOffset": 215904,
      "componentType": 5126,
      "count": 225,
      "max": [
        0.0,
        0.0
      ],
      "min": [
        0.0,
        0.0
      ],
      "type": "VEC2"
    },
    {
      "bufferView": 0,
      "byteOffset": 555264,
      "componentType": 5125,
      "count": 1152,
      "type": "SCALAR"
    },
    {
      "bufferView": 2,
      "byteOffset": 653112,
      "componentType": 5126,
      "count": 158,
      "max": [
        0.6552316546440125,
        6.271029472351074,
        1.1024508476257324
      ],
      "min": [
        -0.02843600884079933,
        5.831092834472656,
        -1.0777883529663086
      ],
      "type": "VEC3"
    },
    {
      "bufferView": 2,
      "byteOffset": 655008,
      "componentType": 5126,
      "count": 158,
      "max": [
        -0.42769795656204224,
        -0.8110171556472778,
        0.0003967515367548913
      ],
      "min": [
        -0.585022509098053,
        -0.9039216637611389,
        -0.0003967515367548913
      ],
      "type": "VEC3"
    },
    {
      "bufferView": 1,
      "byteOffset": 217704,
      "componentType": 5126,
      "count": 158,
      "max": [
        1.0000001192092896,
        1.0000001192092896
      ],
      "min": [
        0.0,
        0.0
      ],
      "type": "VEC2"
    },
    {
      "bufferView": 0,
      "byteOffset": 559872,
      "componentType": 5125,
      "count": 768,
      "type": "SCALAR"
    },
    {
      "bufferView": 2,
      "byteOffset": 656904,
      "componentType": 5126,
      "count": 363,
      "max": [
        -0.5021798610687256,
        5.043478012084961,
        0.7015829682350159
      ],
      "min": [
        -1.0977716445922852,
        0.5354878902435303,
        -0.6769205927848816
      ],
      "type": "VEC3"
    },
    {
      "bufferView": 2,
      "byteOffset": 661260,
      "componentType": 5126,
      "count": 363,
      "max": [
        0.9999209642410278,
        0.6591784358024597,
        0.9500698447227478
      ],
      "min": [
        0.310687780380249,
        -0.7403308153152466,
        -0.9500698447227478
      ],
      "type": "VEC3"
    },
    {
      "bufferView": 1,
      "byteOffset": 218968,
      "componentType": 5126,
      "count": 363,
      "max": [
        1.0,
        1.0
      ],
      "min": [
        0.0,
        0.0
      ],
      "type": "VEC2"
    },
    {
      "bufferView": 0,
      "byteOffset": 562944,
      "componentType": 5125,
      "count": 1728,
      "type": "SCALAR"
    }
  ],
  "asset": {
    "extras": {
      "author": "dylanheyes (https://sketchfab.com/dylanheyes)",
      "license": "CC-BY-4.0 (http://creativecommons.org/licenses/by/4.0/)",
      "source": "https://sketchfab.com/3d-models/futuristic-sci-fi-car-525bb5ad44d34ad1b74aca686ea836a4",
      "title": "Futuristic Sci-Fi Car"
    },
    "generator": "Sketchfab-14.24.0",
    "version": "2.0"
  },
  "bufferViews": [
    {
      "buffer": 0,
      "byteLength": 569856,
      "name": "floatBufferViews",
      "target": 34963
    },
    {
      "buffer": 0,
      "byteLength": 221872,
      "byteOffset": 569856,
      "byteStride": 8,
      "name": "floatBufferViews",
      "target": 34962
    },
    {
      "buffer": 0,
      "byteLength": 665616,
      "byteOffset": 791728,
      "byteStride": 12,
      "name": "floatBufferViews",
      "target": 34962
    }
  ],
  "buffers": [
    {
      "byteLength": 1457344,
      "uri": "scene.bin"
    }
  ],
  "extensionsUsed": [
    "KHR_materials_clearcoat"
  ],
  "materials": [
    {
      "doubleSided": true,
      "name": "Tank",
      "pbrMetallicRoughness": {
        "baseColorFactor": [
          0.1136497429342905,
          0.02418522252485136,
          0.0,
          1.0
        ],
        "metallicFactor": 0.9249182080523445,
        "roughnessFactor": 0.2380458758275975
      }
    },
    {
      "doubleSided": true,
      "emissiveFactor": [
        1.0,
        1.0,
        1.0
      ],
      "name": "Lights",
      "pbrMetallicRoughness": {
        "baseColorFactor": [
          0.8,
          0.8,
          0.8,
          1.0
        ],
        "metallicFactor": 0.0,
        "roughnessFactor": 0.8211145618000169
      }
    },
    {
      "doubleSided": true,
      "emissiveFactor": [
        1.0,
        0.0,
        0.0
      ],
      "name": "Backlights",
      "pbrMetallicRoughness": {
        "baseColorFactor": [
          0.8,
          0.003128,
          0.0,
          1.0
        ],
        "metallicFactor": 0.0,
        "roughnessFactor": 0.9614687148749671
      }
    },
    {
      "doubleSided": true,
      "emissiveFactor": [
        0.0,
        1.0,
        1.0
      ],
      "name": "Engine",
      "pbrMetallicRoughness": {
        "baseColorFactor": [
          0.0,
          0.799103,
          0.701102,
          1.0
        ],
        "metallicFactor": 0.0,
        "roughnessFactor": 0.8608857073532197
      }
    },
    {
      "doubleSided": true,
      "extensions": {
        "KHR_materials_clearcoat": {
          "clearcoatFactor": 1.0,
          "clearcoatRoughnessFactor": 0.04
        }
      },
      "name": "Window",
      "pbrMetallicRoughness": {
        "baseColorFactor": [
          0.110689,
          0.110689,
          0.110689,
          1.0
        ],
        "metallicFactor": 0.7386735407609822,
        "roughnessFactor": 0.0
      }
    }
  ],
  "meshes": [
    {
      "name": "Futuristic Car_Tank_0",
      "primitives": [
        {
          "attributes": {
            "NORMAL": 1,
            "POSITION": 0,
            "TEXCOORD_0": 2
          },
          "indices": 3,
          "material": 0,
          "mode": 4
        }
      ]
    },
    {
      "name": "Futuristic Car_Lights_0",
      "primitives": [
        {
          "attributes": {
            "NORMAL": 5,
            "POSITION": 4,
            "TEXCOORD_0": 6
          },
          "indices": 7,
          "material": 1,
          "mode": 4
        }
      ]
    },
    {
      "name": "Futuristic Car_Backlights_0",
      "primitives": [
        {
          "attributes": {
            "NORMAL": 9,
            "POSITION": 8,
            "TEXCOORD_0": 10
          },
          "indices": 11,
          "material": 2,
          "mode": 4
        }
      ]
    },
    {
      "name": "Futuristic Car_Engine_0",
      "primitives": [
        {
          "attributes": {
            "NORMAL": 13,
            "POSITION": 12,
            "TEXCOORD_0": 14
          },
          "indices": 15,
          "material": 3,
          "mode": 4
        }
      ]
    },
    {
      "name": "Futuristic Car_Window_0",
      "primitives": [
        {
          "attributes": {
            "NORMAL": 17,
            "POSITION": 16,
            "TEXCOORD_0": 18
          },
          "indices": 19,
          "material": 4,
          "mode": 4
        }
      ]
    }
  ],
  "nodes": [
    {
      "children": [
        1
      ],
      "matrix": [
        0.8868188858032227,
        0.0,
        0.0,
        0.0,
        0.0,
        1.9691334913823303e-16,
        -0.8868188858032227,
        0.0,
        0.0,
        0.8868188858032227,
        1.9691334913823303e-16,
        0.0,
        0.0,
        0.0,
        0.0,
        1.0
      ],
      "name": "Sketchfab_model"
    },
    {
      "children": [
        2
      ],
      "matrix": [
        0.009999999776482582,
        0.0,
        0.0,
        0.0,
        0.0,
        0.0,
        0.009999999776482582,
        0.0,
        0.0,
        -0.009999999776482582,
        0.0,
        0.0,
        0.0,
        0.0,
        0.0,
        1.0
      ],
      "name": "Futuristic Car.fbx"
    },
    {
      "children": [
        3
      ],
      "name": "RootNode"
    },
    {
      "children": [
        4,
        5,
        6,
        7,
        8
      ],
      "matrix": [
        -1.6292067961387602e-05,
        -99.9999999999985,
        5.960463766996327e-06,
        0.0,
        -1.629206698439134e-05,
        5.960466431531586e-06,
        99.9999999999985,
        0.0,
        -109.99999999999707,
        1.7921273682830474e-05,
        -1.7921274757526362e-05,
        0.0,
        1.356438159942627,
        79.8223648071289,
        67.9616470336914,
        1.0
      ],
      "name": "Futuristic Car"
    },
    {
      "mesh": 0,
      "name": "Futuristic Car_Tank_0"
    },
    {
      "mesh": 1,
      "name": "Futuristic Car_Lights_0"
    },
    {
      "mesh": 2,
      "name": "Futuristic Car_Backlights_0"
    },
    {
      "mesh": 3,
      "name": "Futuristic Car_Engine_0"
    },
    {
      "mesh": 4,
      "name": "Futuristic Car_Window_0"
    }
  ],
  "scene": 0,
  "scenes": [
    {
      "name": "Sketchfab_Scene",
      "nodes": [
        0
      ]
    }
  ]
}
