{
  "accessors": [
    {
      "bufferView": 2,
      "componentType": 5126,
      "count": 8212,
      "max": [
        27.92995262145996,
        739.9999389648438,
        27.954395294189453
      ],
      "min": [
        -15.88458251953125,
        0.0,
        -27.954448699951172
      ],
      "type": "VEC3"
    },
    {
      "bufferView": 2,
      "byteOffset": 98544,
      "componentType": 5126,
      "count": 8212,
      "max": [
        0.5276404619216919,
        0.0,
        0.9997081160545349
      ],
      "min": [
        -1.0,
        0.0,
        -0.9997081160545349
      ],
      "type": "VEC3"
    },
    {
      "bufferView": 3,
      "componentType": 5126,
      "count": 8212,
      "max": [
        0.9997081160545349,
        1.1295026524749119e-05,
        0.6448408961296082,
        1.0
      ],
      "min": [
        -0.6985135078430176,
        -1.1294767318759114e-05,
        -1.0,
        -1.0
      ],
      "type": "VEC4"
    },
    {
      "bufferView": 1,
      "componentType": 5126,
      "count": 8212,
      "max": [
        1.461378812789917,
        17.2517032623291
      ],
      "min": [
        -0.2887175679206848,
        -5.873295783996582
      ],
      "type": "VEC2"
    },
    {
      "bufferView": 1,
      "byteOffset": 65696,
      "componentType": 5126,
      "count": 8212,
      "max": [
        1.461378812789917,
        17.2517032623291
      ],
      "min": [
        -0.2887175679206848,
        -5.873295783996582
      ],
      "type": "VEC2"
    },
    {
      "bufferView": 1,
      "byteOffset": 131392,
      "componentType": 5126,
      "count": 8212,
      "max": [
        1.461378812789917,
        17.2517032623291
      ],
      "min": [
        -0.2887175679206848,
        -5.873295783996582
      ],
      "type": "VEC2"
    },
    {
      "bufferView": 0,
      "componentType": 5125,
      "count": 17982,
      "type": "SCALAR"
    },
    {
      "bufferView": 2,
      "byteOffset": 197088,
      "componentType": 5126,
      "count": 33169,
      "max": [
        59.929954528808594,
        985.01708984375,
        59.84236145019531
      ],
      "min": [
        -14.265869140625,
        -2.912472700700164e-05,
        -59.8424186706543
      ],
      "type": "VEC3"
    },
    {
      "bufferView": 2,
      "byteOffset": 595116,
      "componentType": 5126,
      "count": 33169,
      "max": [
        1.0,
        1.0,
        0.9988323450088501
      ],
      "min": [
        -1.0,
        -1.0,
        -0.9988323450088501
      ],
      "type": "VEC3"
    },
    {
      "bufferView": 3,
      "byteOffset": 131392,
      "componentType": 5126,
      "count": 33169,
      "max": [
        1.0,
        1.0,
        1.0,
        1.0
      ],
      "min": [
        -1.0,
        -1.0,
        -1.0,
        -1.0
      ],
      "type": "VEC4"
    },
    {
      "bufferView": 1,
      "byteOffset": 197088,
      "componentType": 5126,
      "count": 33169,
      "max": [
        21.329975128173828,
        21.329975128173828
      ],
      "min": [
        -20.330005645751953,
        -20.330005645751953
      ],
      "type": "VEC2"
    },
    {
      "bufferView": 1,
      "byteOffset": 462440,
      "componentType": 5126,
      "count": 33169,
      "max": [
        21.329975128173828,
        21.329975128173828
      ],
      "min": [
        -20.330005645751953,
        -20.330005645751953
      ],
      "type": "VEC2"
    },
    {
      "bufferView": 1,
      "byteOffset": 727792,
      "componentType": 5126,
      "count": 33169,
      "max": [
        21.329975128173828,
        21.329975128173828
      ],
      "min": [
        -20.330005645751953,
        -20.330005645751953
      ],
      "type": "VEC2"
    },
    {
      "bufferView": 0,
      "byteOffset": 71928,
      "componentType": 5125,
      "count": 65394,
      "type": "SCALAR"
    },
    {
      "bufferView": 2,
      "byteOffset": 993144,
      "componentType": 5126,
      "count": 2436,
      "max": [
        59.929954528808594,
        741.5,
        59.84236145019531
      ],
      "min": [
        -15.88458251953125,
        68.0,
        -59.8424186706543
      ],
      "type": "VEC3"
    },
    {
      "bufferView": 2,
      "byteOffset": 1022376,
      "componentType": 5126,
      "count": 2436,
      "max": [
        1.0,
        1.0,
        0.9997081160545349
      ],
      "min": [
        -1.0,
        -2.279501359225833e-06,
        -0.9997081160545349
      ],
      "type": "VEC3"
    },
    {
      "bufferView": 1,
      "byteOffset": 993144,
      "componentType": 5126,
      "count": 2436,
      "max": [
        1.1232585906982422,
        3.0985424518585205
      ],
      "min": [
        -0.12325853109359741,
        -3.9159598350524902
      ],
      "type": "VEC2"
    },
    {
      "bufferView": 0,
      "byteOffset": 333504,
      "componentType": 5125,
      "count": 3924,
      "type": "SCALAR"
    },
    {
      "bufferView": 2,
      "byteOffset": 1051608,
      "componentType": 5126,
      "count": 3650,
      "max": [
        58.256534576416016,
        643.9999389648438,
        59.84236145019531
      ],
      "min": [
        -15.88458251953125,
        0.0,
        -59.8424186706543
      ],
      "type": "VEC3"
    },
    {
      "bufferView": 2,
      "byteOffset": 1095408,
      "componentType": 5126,
      "count": 3650,
      "max": [
        -0.21578340232372284,
        0.0,
        0.9764412641525269
      ],
      "min": [
        -0.9973733425140381,
        0.0,
        -0.9764413237571716
      ],
      "type": "VEC3"
    },
    {
      "bufferView": 3,
      "byteOffset": 662096,
      "componentType": 5126,
      "count": 3650,
      "max": [
        0.9764412641525269,
        1.228106469852719e-07,
        0.6631234884262085,
        1.0
      ],
      "min": [
        -0.6985155940055847,
        -2.384836363944487e-07,
        -0.9973732829093933,
        -1.0
      ],
      "type": "VEC4"
    },
    {
      "bufferView": 1,
      "byteOffset": 1012632,
      "componentType": 5126,
      "count": 3650,
      "max": [
        1.1232585906982422,
        2.0830793380737305
      ],
      "min": [
        -0.12325853109359741,
        -4.624179840087891
      ],
      "type": "VEC2"
    },
    {
      "bufferView": 1,
      "byteOffset": 1041832,
      "componentType": 5126,
      "count": 3650,
      "max": [
        1.1232585906982422,
        2.0830793380737305
      ],
      "min": [
        -0.12325853109359741,
        -4.624179840087891
      ],
      "type": "VEC2"
    },
    {
      "bufferView": 1,
      "byteOffset": 1071032,
      "componentType": 5126,
      "count": 3650,
      "max": [
        1.1232585906982422,
        2.0830793380737305
      ],
      "min": [
        -0.12325853109359741,
        -4.624179840087891
      ],
      "type": "VEC2"
    },
    {
      "bufferView": 0,
      "byteOffset": 349200,
      "componentType": 5125,
      "count": 7926,
      "type": "SCALAR"
    },
    {
      "bufferView": 2,
      "byteOffset": 1139208,
      "componentType": 5126,
      "count": 766,
      "max": [
        59.929954528808594,
        984.0,
        8.669269561767578
      ],
      "min": [
        27.929948806762695,
        643.9999389648438,
        -8.669418334960938
      ],
      "type": "VEC3"
    },
    {
      "bufferView": 2,
      "byteOffset": 1148400,
      "componentType": 5126,
      "count": 766,
      "max": [
        0.9999595880508423,
        0.1705423891544342,
        0.9988323450088501
      ],
      "min": [
        -0.9999595284461975,
        0.0,
        -0.9988323450088501
      ],
      "type": "VEC3"
    },
    {
      "bufferView": 3,
      "byteOffset": 720496,
      "componentType": 5126,
      "count": 766,
      "max": [
        0.9988323450088501,
        0.001521569793112576,
        0.4354349970817566,
        1.0
      ],
      "min": [
        -2.2981796519161435e-06,
        -0.0019607776775956154,
        -1.0,
        -1.0
      ],
      "type": "VEC4"
    },
    {
      "bufferView": 1,
      "byteOffset": 1100232,
      "componentType": 5126,
      "count": 766,
      "max": [
        1.0837217569351196,
        12.883255004882813
      ],
      "min": [
        -0.5162786245346069,
        -4.116748332977295
      ],
      "type": "VEC2"
    },
    {
      "bufferView": 1,
      "byteOffset": 1106360,
      "componentType": 5126,
      "count": 766,
      "max": [
        1.0837217569351196,
        12.883255004882813
      ],
      "min": [
        -0.5162786245346069,
        -4.116748332977295
      ],
      "type": "VEC2"
    },
    {
      "bufferView": 1,
      "byteOffset": 1112488,
      "componentType": 5126,
      "count": 766,
      "max": [
        1.0837217569351196,
        12.883255004882813
      ],
      "min": [
        -0.5162786245346069,
        -4.116748332977295
      ],
      "type": "VEC2"
    },
    {
      "bufferView": 0,
      "byteOffset": 380904,
      "componentType": 5125,
      "count": 1326,
      "type": "SCALAR"
    },
    {
      "bufferView": 2,
      "byteOffset": 1157592,
      "componentType": 5126,
      "count": 304,
      "max": [
        59.929954528808594,
        740.0,
        59.84236145019531
      ],
      "min": [
        -15.88458251953125,
        0.0,
        -59.8424186706543
      ],
      "type": "VEC3"
    },
    {
      "bufferView": 2,
      "byteOffset": 1161240,
      "componentType": 5126,
      "count": 304,
      "max": [
        2.6958173293678556e-06,
        1.0,
        2.696488536457764e-06
      ],
      "min": [
        -7.6066462497692555e-06,
        -1.0,
        -6.218894668563735e-06
      ],
      "type": "VEC3"
    },
    {
      "bufferView": 1,
      "byteOffset": 1118616,
      "componentType": 5126,
      "count": 304,
      "max": [
        0.8948042392730713,
        1.1232585906982422
      ],
      "min": [
        0.1051957905292511,
        -0.12325853109359741
      ],
      "type": "VEC2"
    },
    {
      "bufferView": 1,
      "byteOffset": 1121048,
      "componentType": 5126,
      "count": 304,
      "max": [
        0.8948042392730713,
        1.1232585906982422
      ],
      "min": [
        0.1051957905292511,
        -0.12325853109359741
      ],
      "type": "VEC2"
    },
    {
      "bufferView": 0,
      "byteOffset": 386208,
      "componentType": 5125,
      "count": 804,
      "type": "SCALAR"
    },
    {
      "bufferView": 2,
      "byteOffset": 1164888,
      "componentType": 5126,
      "count": 60,
      "max": [
        59.0193977355957,
        985.1170654296875,
        0.08499138802289963
      ],
      "min": [
        58.840511322021484,
        984.9171142578125,
        -0.08513662964105606
      ],
      "type": "VEC3"
    },
    {
      "bufferView": 2,
      "byteOffset": 1165608,
      "componentType": 5126,
      "count": 60,
      "max": [
        0.9822844862937927,
        0.7948018908500671,
        0.9341971278190613
      ],
      "min": [
        -0.9822283983230591,
        -0.7949207425117493,
        -0.9341971278190613
      ],
      "type": "VEC3"
    },
    {
      "bufferView": 1,
      "byteOffset": 1123480,
      "componentType": 5126,
      "count": 60,
      "max": [
        1.0,
        0.47238200902938843
      ],
      "min": [
        0.0,
        0.0
      ],
      "type": "VEC2"
    },
    {
      "bufferView": 0,
      "byteOffset": 389424,
      "componentType": 5125,
      "count": 60,
      "type": "SCALAR"
    },
    {
      "bufferView": 2,
      "byteOffset": 1166328,
      "componentType": 5126,
      "count": 2146,
      "max": [
        61.00495529174805,
        161.79403686523438,
        32.46229934692383
      ],
      "min": [
        44.04568099975586,
        135.6009521484375,
        -40.471229553222656
      ],
      "type": "VEC3"
    },
    {
      "bufferView": 2,
      "byteOffset": 1192080,
      "componentType": 5126,
      "count": 2146,
      "max": [
        0.9980192184448242,
        1.0,
        0.9775640368461609
      ],
      "min": [
        -0.9980193972587585,
        -1.0,
        -0.9443634748458862
      ],
      "type": "VEC3"
    },
    {
      "bufferView": 0,
      "byteOffset": 389664,
      "componentType": 5125,
      "count": 3222,
      "type": "SCALAR"
    }
  ],
  "asset": {
    "extras": {
      "author": "Mitya Petrov (https://sketchfab.com/mitya-petrov)",
      "license": "CC-BY-4.0 (http://creativecommons.org/licenses/by/4.0/)",
      "source": "https://sketchfab.com/3d-models/skyscraper-659d9c8cb53f48e5a779d75ba039e8fb",
      "title": "SKYSCRAPER"
    },
    "generator": "Sketchfab-12.63.0",
    "version": "2.0"
  },
  "bufferViews": [
    {
      "buffer": 0,
      "byteLength": 402552,
      "name": "floatBufferViews",
      "target": 34963
    },
    {
      "buffer": 0,
      "byteLength": 1123960,
      "byteOffset": 402552,
      "byteStride": 8,
      "name": "floatBufferViews",
      "target": 34962
    },
    {
      "buffer": 0,
      "byteLength": 1217832,
      "byteOffset": 1526512,
      "byteStride": 12,
      "name": "floatBufferViews",
      "target": 34962
    },
    {
      "buffer": 0,
      "byteLength": 732752,
      "byteOffset": 2744344,
      "byteStride": 16,
      "name": "floatBufferViews",
      "target": 34962
    }
  ],
  "buffers": [
    {
      "byteLength": 3477096,
      "uri": "scene.bin"
    }
  ],
  "images": [
    {
      "uri": "textures/Wins2_baseColor.jpeg"
    },
    {
      "uri": "textures/Wins2_normal.png"
    },
    {
      "uri": "textures/Wins1_baseColor.jpeg"
    },
    {
      "uri": "textures/Wins1_normal.png"
    },
    {
      "uri": "textures/Metal2_baseColor.jpeg"
    },
    {
      "uri": "textures/Metal2_normal.png"
    },
    {
      "uri": "textures/Metal_baseColor.jpeg"
    },
    {
      "uri": "textures/Metal_metallicRoughness.png"
    },
    {
      "uri": "textures/Metal_normal.png"
    },
    {
      "uri": "textures/Concrete_baseColor.png"
    },
    {
      "uri": "textures/Concrete_metallicRoughness.png"
    }
  ],
  "materials": [
    {
      "doubleSided": true,
      "name": "Logo__0",
      "pbrMetallicRoughness": {
        "metallicFactor": 0.0,
        "roughnessFactor": 0.6
      }
    },
    {
      "doubleSided": true,
      "name": "Wins2",
      "normalTexture": {
        "index": 1
      },
      "pbrMetallicRoughness": {
        "baseColorTexture": {
          "index": 0
        },
        "roughnessFactor": 0.8040408205773457
      }
    },
    {
      "doubleSided": true,
      "name": "Wins1",
      "normalTexture": {
        "index": 3
      },
      "pbrMetallicRoughness": {
        "baseColorTexture": {
          "index": 2
        },
        "roughnessFactor": 0.0
      }
    },
    {
      "alphaMode": "BLEND",
      "doubleSided": true,
      "name": "Glass",
      "pbrMetallicRoughness": {
        "baseColorFactor": [
          0.0,
          0.0,
          0.0,
          0.6644489235053415
        ],
        "metallicFactor": 0.0
      }
    },
    {
      "doubleSided": true,
      "name": "Metal2",
      "normalTexture": {
        "index": 5
      },
      "pbrMetallicRoughness": {
        "baseColorTexture": {
          "index": 4
        },
        "metallicFactor": 0.0,
        "roughnessFactor": 0.683772233983162
      }
    },
    {
      "doubleSided": true,
      "name": "Metal",
      "normalTexture": {
        "index": 8
      },
      "pbrMetallicRoughness": {
        "baseColorTexture": {
          "index": 6
        },
        "metallicRoughnessTexture": {
          "index": 7
        }
      }
    },
    {
      "doubleSided": true,
      "name": "Concrete",
      "pbrMetallicRoughness": {
        "baseColorTexture": {
          "index": 9
        },
        "metallicFactor": 0.0,
        "metallicRoughnessTexture": {
          "index": 10
        }
      }
    },
    {
      "doubleSided": true,
      "emissiveFactor": [
        1.0,
        0.0,
        0.014930299999999931
      ],
      "name": "Emissive_Red",
      "pbrMetallicRoughness": {
        "baseColorFactor": [
          0.8,
          0.8,
          0.8,
          1.0
        ],
        "metallicFactor": 0.0,
        "roughnessFactor": 0.8211145618000169
      }
    }
  ],
  "meshes": [
    {
      "name": "Building_Wins2_0",
      "primitives": [
        {
          "attributes": {
            "NORMAL": 1,
            "POSITION": 0,
            "TANGENT": 2,
            "TEXCOORD_0": 3,
            "TEXCOORD_1": 4,
            "TEXCOORD_2": 5
          },
          "indices": 6,
          "material": 1,
          "mode": 4
        }
      ]
    },
    {
      "name": "Building_Wins1_0",
      "primitives": [
        {
          "attributes": {
            "NORMAL": 8,
            "POSITION": 7,
            "TANGENT": 9,
            "TEXCOORD_0": 10,
            "TEXCOORD_1": 11,
            "TEXCOORD_2": 12
          },
          "indices": 13,
          "material": 2,
          "mode": 4
        }
      ]
    },
    {
      "name": "Building_Glass_0",
      "primitives": [
        {
          "attributes": {
            "NORMAL": 15,
            "POSITION": 14,
            "TEXCOORD_0": 16
          },
          "indices": 17,
          "material": 3,
          "mode": 4
        }
      ]
    },
    {
      "name": "Building_Metal2_0",
      "primitives": [
        {
          "attributes": {
            "NORMAL": 19,
            "POSITION": 18,
            "TANGENT": 20,
            "TEXCOORD_0": 21,
            "TEXCOORD_1": 22,
            "TEXCOORD_2": 23
          },
          "indices": 24,
          "material": 4,
          "mode": 4
        }
      ]
    },
    {
      "name": "Building_Metal_0",
      "primitives": [
        {
          "attributes": {
            "NORMAL": 26,
            "POSITION": 25,
            "TANGENT": 27,
            "TEXCOORD_0": 28,
            "TEXCOORD_1": 29,
            "TEXCOORD_2": 30
          },
          "indices": 31,
          "material": 5,
          "mode": 4
        }
      ]
    },
    {
      "name": "Building_Concrete_0",
      "primitives": [
        {
          "attributes": {
            "NORMAL": 33,
            "POSITION": 32,
            "TEXCOORD_0": 34,
            "TEXCOORD_1": 35
          },
          "indices": 36,
          "material": 6,
          "mode": 4
        }
      ]
    },
    {
      "name": "Building_Emissive Red_0",
      "primitives": [
        {
          "attributes": {
            "NORMAL": 38,
            "POSITION": 37,
            "TEXCOORD_0": 39
          },
          "indices": 40,
          "material": 7,
          "mode": 4
        }
      ]
    },
    {
      "name": "Logo__0",
      "primitives": [
        {
          "attributes": {
            "NORMAL": 42,
            "POSITION": 41
          },
          "indices": 43,
          "material": 0,
          "mode": 4
        }
      ]
    }
  ],
  "nodes": [
    {
      "children": [
        1
      ],
      "matrix": [
        1.0,
        0.0,
        0.0,
        0.0,
        0.0,
        2.220446049250313e-16,
        -1.0,
        0.0,
        0.0,
        1.0,
        2.220446049250313e-16,
        0.0,
        0.0,
        0.0,
        0.0,
        1.0
      ],
      "name": "Sketchfab_model"
    },
    {
      "children": [
        2
      ],
      "matrix": [
        1.0,
        0.0,
        0.0,
        0.0,
        0.0,
        0.0,
        1.0,
        0.0,
        0.0,
        -1.0,
        0.0,
        0.0,
        0.0,
        0.0,
        0.0,
        1.0
      ],
      "name": "SKYSCRAPER.fbx"
    },
    {
      "children": [
        3,
        11
      ],
      "name": "RootNode"
    },
    {
      "children": [
        4,
        5,
        6,
        7,
        8,
        9,
        10
      ],
      "name": "Building"
    },
    {
      "mesh": 0,
      "name": "Building_Wins2_0"
    },
    {
      "mesh": 1,
      "name": "Building_Wins1_0"
    },
    {
      "mesh": 2,
      "name": "Building_Glass_0"
    },
    {
      "mesh": 3,
      "name": "Building_Metal2_0"
    },
    {
      "mesh": 4,
      "name": "Building_Metal_0"
    },
    {
      "mesh": 5,
      "name": "Building_Concrete_0"
    },
    {
      "mesh": 6,
      "name": "Building_Emissive Red_0"
    },
    {
      "children": [
        12
      ],
      "name": "Logo"
    },
    {
      "mesh": 7,
      "name": "Logo__0"
    }
  ],
  "samplers": [
    {
      "magFilter": 9729,
      "minFilter": 9987,
      "wrapS": 10497,
      "wrapT": 10497
    }
  ],
  "scene": 0,
  "scenes": [
    {
      "name": "Sketchfab_Scene",
      "nodes": [
        0
      ]
    }
  ],
  "textures": [
    {
      "sampler": 0,
      "source": 0
    },
    {
      "sampler": 0,
      "source": 1
    },
    {
      "sampler": 0,
      "source": 2
    },
    {
      "sampler": 0,
      "source": 3
    },
    {
      "sampler": 0,
      "source": 4
    },
    {
      "sampler": 0,
      "source": 5
    },
    {
      "sampler": 0,
      "source": 6
    },
    {
      "sampler": 0,
      "source": 7
    },
    {
      "sampler": 0,
      "source": 8
    },
    {
      "sampler": 0,
      "source": 9
    },
    {
      "sampler": 0,
      "source": 10
    }
  ]
}
